<?xml version="1.0" encoding="UTF-8"?><svg id="_圖層_2" xmlns="http://www.w3.org/2000/svg" viewBox="0 0 241.96 241.96"><defs><style>.cls-1{fill:#f8834f;}</style></defs><g id="_圖層_1-2"><g><path class="cls-1" d="M120.98,0C54.27,0,0,54.27,0,120.98s54.27,120.98,120.98,120.98,120.98-54.27,120.98-120.98S187.69,0,120.98,0Zm0,219.96c-54.58,0-98.98-44.4-98.98-98.98S66.4,22,120.98,22s98.98,44.4,98.98,98.98-44.4,98.98-98.98,98.98Z"/><path class="cls-1" d="M166.34,78.21l-62.22,62.21-28.51-28.52c-4.29-4.29-11.26-4.3-15.55,0-4.3,4.3-4.3,11.26,0,15.55l36.29,36.29c2.06,2.06,4.86,3.22,7.78,3.22h0c2.92,0,5.71-1.16,7.78-3.22l69.99-69.99c4.3-4.3,4.3-11.26,0-15.55-4.3-4.3-11.26-4.3-15.55,0Z"/></g></g></svg>