<?xml version="1.0" encoding="UTF-8"?><svg id="_圖層_2" xmlns="http://www.w3.org/2000/svg" xmlns:xlink="http://www.w3.org/1999/xlink" viewBox="0 0 401.84 151.15"><defs><style>.cls-1{fill:none;}.cls-2{clip-path:url(#clippath);}.cls-3{fill:#f4bd38;}.cls-4{fill:#f8bc5f;}.cls-5{fill:#f3cc87;}.cls-6{fill:#f46f38;}.cls-7{fill:#f4c83c;}.cls-8{fill:#f4be7a;}.cls-9{fill:#f3c597;}.cls-10{fill:#e99451;}.cls-11{fill:#e99c21;}.cls-12{fill:#e76e43;}.cls-13{fill:#7f591b;}.cls-14{fill:#7e6a1e;}.cls-15{fill:#7d691e;}.cls-16{fill:#df564f;}.cls-17{fill:#d34838;}.cls-18{fill:#d09c2a;}.cls-19{fill:#d53220;}.cls-20{fill:#dcb67a;}.cls-21{fill:#da722c;}.cls-22{fill:#e19d30;}.cls-23{fill:#7a551a;}.cls-24{fill:#7a671d;}.cls-25{fill:#78651d;}.cls-26{fill:#785419;}.cls-27{fill:#765219;}.cls-28{fill:#7c561a;}.cls-29{fill:url(#_未命名漸層_8);}.cls-30{clip-path:url(#clippath-1);}.cls-31{clip-path:url(#clippath-4);}.cls-32{clip-path:url(#clippath-3);}.cls-33{clip-path:url(#clippath-2);}.cls-34{clip-path:url(#clippath-7);}.cls-35{clip-path:url(#clippath-8);}.cls-36{clip-path:url(#clippath-6);}.cls-37{clip-path:url(#clippath-5);}.cls-38{clip-path:url(#clippath-9);}.cls-39{clip-path:url(#clippath-20);}.cls-40{clip-path:url(#clippath-21);}.cls-41{clip-path:url(#clippath-14);}.cls-42{clip-path:url(#clippath-13);}.cls-43{clip-path:url(#clippath-12);}.cls-44{clip-path:url(#clippath-10);}.cls-45{clip-path:url(#clippath-15);}.cls-46{clip-path:url(#clippath-17);}.cls-47{clip-path:url(#clippath-16);}.cls-48{clip-path:url(#clippath-19);}.cls-49{clip-path:url(#clippath-11);}.cls-50{clip-path:url(#clippath-18);}.cls-51{fill:url(#_未命名漸層_28);}.cls-52{fill:url(#_未命名漸層_15);}.cls-53{fill:url(#_未命名漸層_13);}.cls-54{fill:url(#_未命名漸層_10);}.cls-55{fill:url(#_未命名漸層_87);}.cls-56{isolation:isolate;}</style><clipPath id="clippath"><rect class="cls-1" width="401.84" height="151.15"/></clipPath><linearGradient id="_未命名漸層_87" x1="23.28" y1="104.83" x2="123.42" y2="190.31" gradientUnits="userSpaceOnUse"><stop offset="0" stop-color="#ff9b61"/><stop offset="1" stop-color="#f1534e"/></linearGradient><radialGradient id="_未命名漸層_28" cx="-13.72" cy="179.12" fx="-13.72" fy="179.12" r="19.25" gradientTransform="translate(123.38 -33.47) rotate(15.69) scale(.94 .91) skewX(-.87)" gradientUnits="userSpaceOnUse"><stop offset="0" stop-color="#eb7645"/><stop offset="1" stop-color="#f49b4f"/></radialGradient><linearGradient id="_未命名漸層_15" x1="299.43" y1="147.09" x2="402.69" y2="126.68" gradientUnits="userSpaceOnUse"><stop offset="0" stop-color="#ba6ca5"/><stop offset="1" stop-color="#b98dd7"/></linearGradient><linearGradient id="_未命名漸層_13" x1="263.99" y1="161.71" x2="364.9" y2="128.38" gradientUnits="userSpaceOnUse"><stop offset="0" stop-color="#e04638"/><stop offset="1" stop-color="#f47565"/></linearGradient><clipPath id="clippath-1"><path class="cls-1" d="M130.49,117.92c.06-.02,.13-.04,.19-.06,.06-.02,.14-.04,.2-.06s.15-.05,.21-.07,.15-.05,.21-.07,.15-.05,.21-.07,.15-.05,.21-.07,.14-.04,.2-.06c.06-.02,.13-.04,.19-.06,.09-.03,.21-.07,.3-.09,.1-.03,.22-.07,.32-.1s.23-.07,.33-.1,.24-.07,.34-.11,.24-.07,.34-.11,.23-.07,.33-.1,.22-.07,.32-.1c.09-.03,.21-.07,.3-.09,1.08,.46,2.12,1.05,3.13,1.78l-4.18,1.31c-1.01-.73-2.05-1.32-3.13-1.78Z"/></clipPath><clipPath id="clippath-2"><path class="cls-1" d="M124.57,116.84c-.64,.03-1.28,.09-1.94,.21l4.18-1.31c.66-.11,1.3-.18,1.94-.21,1.33-.05,2.61,.07,3.85,.39,.71,.18,1.4,.41,2.08,.7-1.39,.44-2.79,.87-4.18,1.31-.68-.29-1.37-.52-2.08-.7-1.23-.31-2.52-.44-3.85-.39Z"/></clipPath><clipPath id="clippath-3"><path class="cls-1" d="M133.59,133.08c-1.48-1.06-3.82-1.54-7.04-1.47l4.18-1.31c3.22-.07,5.57,.41,7.04,1.47,1.48,1.06,2.55,2.22,3.23,3.48-1.39,.44-2.79,.87-4.18,1.31,1.39-.44,2.79-.87,4.18-1.31,.68,1.26,1.19,2.8,1.54,4.59,.61,3.12,.12,5.83-1.46,8.13l-4.18,1.31c1.58-2.3,2.07-5.02,1.46-8.13-.35-1.79-.86-3.33-1.54-4.59-.68-1.26-1.75-2.42-3.23-3.48Z"/></clipPath><clipPath id="clippath-4"><path class="cls-1" d="M133.42,125.03l-4.18,1.31c-.84-.61-1.84-1-2.98-1.17-.75-.1-1.45-.14-2.09-.12-.34,.01-.67,.05-.98,.1l4.18-1.31c.31-.05,.64-.09,.98-.1,.64-.03,1.34,.01,2.09,.12,1.14,.17,2.14,.56,2.98,1.17Z"/></clipPath><clipPath id="clippath-5"><path class="cls-1" d="M132.87,139.43l-4.18,1.31c-.28-.24-.68-.39-1.18-.47-.5-.08-.97-.11-1.41-.11l4.18-1.31c.44,0,.91,.03,1.41,.11,.5,.08,.89,.23,1.18,.47Z"/></clipPath><clipPath id="clippath-6"><path class="cls-1" d="M134.07,153.01l-4.18,1.31c3.1-1.06,5.43-2.73,7.01-5.03l4.18-1.31c-1.58,2.3-3.91,3.97-7.01,5.03Z"/></clipPath><clipPath id="clippath-7"><path class="cls-1" d="M131.52,145.18l-4.18,1.31c1.98-.75,2.81-1.99,2.48-3.68-.19-.97-.57-1.66-1.13-2.07l4.18-1.31c.56,.41,.94,1.1,1.13,2.07,.33,1.7-.49,2.93-2.48,3.68Z"/></clipPath><clipPath id="clippath-8"><path class="cls-1" d="M115.54,101.4c-1.52,.25-2.99,.61-4.42,1.06l4.18-1.31c1.43-.45,2.9-.8,4.42-1.06,1.39-.23,2.78-.38,4.16-.43,17.31-.72,33.38,12.11,36.91,30.27,3.51,18.02-6.53,35.14-22.8,40.24l-4.18,1.31c16.28-5.1,26.32-22.21,22.8-40.24-3.54-18.16-19.6-30.99-36.91-30.27-1.38,.06-2.77,.2-4.16,.43Z"/></clipPath><clipPath id="clippath-9"><path class="cls-1" d="M137.39,168.25l-4.18,1.31c15.42-4.83,24.94-21,21.63-38.03-3.35-17.16-18.56-29.27-34.97-28.59-1.32,.05-2.63,.2-3.96,.41-1.44,.24-2.85,.58-4.2,1l4.18-1.31c1.36-.42,2.76-.76,4.2-1,1.33-.22,2.64-.36,3.96-.41,16.4-.68,31.62,11.43,34.97,28.59,3.32,17.03-6.21,33.2-21.63,38.03Z"/></clipPath><clipPath id="clippath-10"><path class="cls-1" d="M119.46,132.05c.46-.14,.92-.29,1.38-.43,.1-.03,.23-.07,.33-.1,.1-.03,.24-.08,.35-.11s.25-.08,.36-.11,.26-.08,.37-.11,.26-.08,.37-.11,.25-.08,.36-.11,.24-.08,.35-.11c.1-.03,.23-.07,.33-.1,.17,0,.34,0,.53,0,.03,0,.07,0,.1,0l-4.18,1.31s-.07,0-.1,0c-.19,0-.37,0-.53,0Z"/></clipPath><clipPath id="clippath-11"><path class="cls-1" d="M121.03,126.27l-4.18,1.31c.41-.73,1.09-1.28,2.05-1.66l4.18-1.31c-.95,.38-1.64,.93-2.05,1.66Z"/></clipPath><clipPath id="clippath-12"><path class="cls-1" d="M117.51,131.39c-.3-.22-.53-.44-.7-.69,1.39-.44,2.79-.87,4.18-1.31,.17,.24,.4,.47,.7,.69,.31,.22,.66,.39,1.06,.52,.26,.08,.55,.13,.89,.15-1.39,.44-2.79,.87-4.18,1.31-.34-.02-.63-.07-.89-.15-.4-.13-.75-.3-1.06-.52Z"/></clipPath><clipPath id="clippath-13"><path class="cls-1" d="M116.45,129.76c-.14-.73,0-1.45,.4-2.18l4.18-1.31c-.41,.73-.54,1.45-.4,2.18,.08,.38,.19,.69,.36,.93h0c-1.39,.44-2.79,.87-4.18,1.31,0,0,0,0,0,0-.17-.24-.29-.55-.36-.93Z"/></clipPath><clipPath id="clippath-14"><path class="cls-1" d="M116.22,146.79c.06-.02,.13-.04,.19-.06,.06-.02,.14-.04,.2-.06s.15-.05,.21-.07,.15-.05,.22-.07,.15-.05,.22-.07,.15-.05,.21-.07,.14-.04,.2-.06c.06-.02,.13-.04,.19-.06,.09-.03,.21-.06,.3-.09,.09-.03,.22-.07,.31-.1s.23-.07,.33-.1,.23-.07,.33-.1,.23-.07,.33-.1,.23-.07,.33-.1,.22-.07,.31-.1c.09-.03,.21-.06,.3-.09,.72,.31,1.53,.53,2.43,.65,.87,.12,1.74,.16,2.6,.12,.61-.03,1.22-.09,1.82-.19l-4.18,1.31c-.61,.1-1.21,.16-1.82,.19-.86,.04-1.73,0-2.6-.12-.9-.12-1.71-.34-2.43-.65Z"/></clipPath><clipPath id="clippath-15"><path class="cls-1" d="M116.22,146.79c-.47-.2-.9-.45-1.29-.74l4.18-1.31c.39,.29,.82,.53,1.29,.74-.84,.26-1.69,.53-2.53,.79-.27,.09-.55,.17-.82,.26-.06,.02-.15,.05-.22,.07-.11,.03-.21,.07-.32,.1-.03,0-.07,.02-.1,.03-.06,.02-.13,.06-.19,.06Z"/></clipPath><clipPath id="clippath-16"><path class="cls-1" d="M123.93,139.27l-4.18,1.31c-1.61,.05-3.06-.1-4.37-.45s-2.69-1.08-4.17-2.18c-1.47-1.1-2.52-3.27-3.15-6.5-.6-3.1-.18-5.85,1.28-8.24,1.46-2.4,3.79-4.1,7-5.1l4.18-1.31c-3.21,1-5.54,2.71-7,5.1-1.46,2.4-1.88,5.14-1.28,8.24,.63,3.23,1.68,5.4,3.15,6.5,1.47,1.1,2.86,1.82,4.17,2.18s2.76,.5,4.37,.45Z"/></clipPath><clipPath id="clippath-17"><path class="cls-1" d="M110.34,168.12c.07-.02,.17-.05,.24-.07,.08-.02,.18-.05,.25-.08s.18-.06,.26-.08,.18-.06,.26-.08,.18-.06,.26-.08,.18-.06,.26-.08,.17-.05,.25-.08c.07-.02,.17-.05,.24-.07,.72-.23,1.44-.45,2.16-.68,4.65,2.09,9.65,3.07,14.68,2.86,1.33-.06,2.66-.19,3.99-.42,1.44-.24,2.85-.58,4.21-1l-4.18,1.31c-1.36,.43-2.76,.76-4.21,1-1.33,.22-2.66,.36-3.99,.42-5.02,.21-10.02-.77-14.68-2.86Z"/></clipPath><clipPath id="clippath-18"><path class="cls-1" d="M104.18,164.55c-.92-.67-1.8-1.37-2.64-2.11,0,0,4.18-1.31,4.18-1.31,.84,.74,1.72,1.45,2.64,2.11,1.96,1.42,4.02,2.61,6.16,3.57-1.39,.44-2.79,.87-4.18,1.31-2.14-.96-4.2-2.15-6.16-3.57Z"/></clipPath><clipPath id="clippath-19"><path class="cls-1" d="M90.09,142.39c-3.32-17.03,6.2-33.2,21.62-38.03l4.18-1.31c-15.42,4.83-24.94,21-21.62,38.03,1.53,7.85,5.55,14.85,11.45,20.04,0,0-4.18,1.31-4.18,1.31-5.9-5.2-9.91-12.2-11.44-20.04Z"/></clipPath><clipPath id="clippath-20"><path class="cls-1" d="M137.99,170.16l-4.18,1.31c-1.43,.45-2.9,.8-4.42,1.06-1.4,.23-2.8,.38-4.2,.43-7.72,.32-15.39-2.02-21.95-6.79-7.77-5.63-13.07-13.97-14.92-23.48-3.51-18.02,6.53-35.14,22.8-40.24l4.18-1.31c-16.28,5.1-26.31,22.21-22.8,40.24,1.86,9.52,7.16,17.85,14.92,23.48,6.56,4.77,14.23,7.11,21.95,6.79,1.4-.06,2.8-.21,4.2-.43,1.52-.25,2.99-.61,4.42-1.06Z"/></clipPath><clipPath id="clippath-21"><path class="cls-18" d="M140.57,177.84l-4.18,1.31c-1.76,.55-3.58,.99-5.45,1.3-1.71,.29-3.42,.46-5.12,.53-21.22,.88-40.85-14.76-45.18-37.01-4.3-22.08,7.97-42.97,27.91-49.21l4.18-1.31c-19.94,6.25-32.21,27.13-27.91,49.21,4.33,22.24,23.96,37.88,45.18,37.01,1.7-.07,3.41-.25,5.12-.53,1.87-.31,3.69-.75,5.45-1.3Z"/></clipPath><linearGradient id="_未命名漸層_8" x1="217.05" y1="122.75" x2="217.05" y2="165.67" gradientUnits="userSpaceOnUse"><stop offset="0" stop-color="#f44c37"/><stop offset="1" stop-color="#e32e25"/></linearGradient><linearGradient id="_未命名漸層_10" x1="217.05" y1="106.94" x2="217.05" y2="165.67" gradientUnits="userSpaceOnUse"><stop offset="0" stop-color="#e9954b"/><stop offset="1" stop-color="#d1632e"/></linearGradient></defs><g id="_圖層_1-2"><g class="cls-2"><g><g><path class="cls-17" d="M132.15,198.09l-3.45,3.28-82.2,18.98c-2.36,.55-4.97-1.01-5.82-3.48L1.12,102.09c-.28-.82-.56-1.79-.78-2.84-.06-.27-.11-.53-.15-.8-.79-4.95,1.02-9.35,3.87-11.67,.16-.13,.32-.25,.49-.37,2.02-1.48,4.34-2.6,6.5-3.18-5.65,1.63-9.39,7.06-6.56,15.31h0s39.64,115.05,39.64,115.05c.85,2.47,3.46,4.03,5.82,3.48l82.2-18.98Z"/><path class="cls-55" d="M132.15,198.09l-82.2,18.98c-2.36,.55-4.97-1.01-5.82-3.48l-23.46-68.1-1.07-3.09L4.49,98.55h0c-2.83-8.26,.91-13.69,6.56-15.32,.17-.05,.35-.09,.52-.13,.03-.01,.06-.01,.09-.02l65.03-15.01c6.03-1.4,15.05-.58,18.19,8.48,0,.01,.01,.02,.01,.03l14.8,42.93,1.04,3.02,24.16,70.1c.85,2.48-.38,4.92-2.74,5.46Z"/><path class="cls-1" d="M.34,99.25c-.06-.27-.11-.53-.15-.8-.79-4.95,1.02-9.35,3.87-11.67,.16-.13,.32-.25,.49-.37"/><path class="cls-1" d="M94.89,76.58s-.01-.02-.01-.03c-3.14-9.06-12.16-9.88-18.19-8.48"/><path class="cls-16" d="M104.94,105.81c-9.21,7.31-23.62,15.31-38.99,19.15-12.52,3.13-26.37,4.25-38.35,4.25-4.57,0-8.87-.16-12.72-.44l-1.07-3.09c13.74,1.11,33.91,.75,51.42-3.63,15.42-3.85,29.82-12,38.67-19.26l1.04,3.02Z"/><g><ellipse class="cls-12" cx="64.33" cy="121.24" rx="19.75" ry="15.68" transform="translate(-23.07 15.42) rotate(-11.6)"/><ellipse class="cls-51" cx="64.39" cy="119.7" rx="19.75" ry="15.68" transform="translate(-22.76 15.4) rotate(-11.6)"/></g><path class="cls-4" d="M53.53,116c1.45-2.93,5.04-5.73,7.06-6.72-6.16-.85-10.07,2.73-11.29,5.08-1.45,2.52-1.51,11.01,2.54,14.02-1.08-4.99,.02-9.02,1.69-12.39Z"/></g><path class="cls-52" d="M399.08,120.49c-1.5,2.18-4.49,2.74-6.67,1.24s-2.74-4.49-1.24-6.67l-2.61-1.79c-1.5,2.18-4.49,2.74-6.67,1.24s-2.74-4.49-1.24-6.67l-2.61-1.79c-1.5,2.18-4.49,2.74-6.67,1.24s-2.74-4.49-1.24-6.67l-2.61-1.79c-1.5,2.18-4.49,2.74-6.67,1.24s-2.74-4.49-1.24-6.67l-2.61-1.79c-1.5,2.18-4.49,2.74-6.67,1.24s-2.74-4.49-1.24-6.67l-2.76-1.9-46.07,67.09,55.5,38.11,46.07-67.09-2.76-1.9Zm-61.08-11.07l-1.55-1.06,.71-1.03,1.55,1.06-.71,1.03Zm5.78,3.97l-2.89-1.99,.71-1.03,2.89,1.99-.71,1.03Zm5.78,3.97l-2.89-1.99,.71-1.03,2.89,1.99-.71,1.03Zm5.78,3.97l-2.89-1.99,.71-1.03,2.89,1.99-.71,1.03Zm5.78,3.97l-2.89-1.99,.71-1.03,2.89,1.99-.71,1.03Zm5.78,3.97l-2.89-1.99,.71-1.03,2.89,1.99-.71,1.03Zm5.78,3.97l-2.89-1.99,.71-1.03,2.89,1.99-.71,1.03Zm5.78,3.97l-2.89-1.99,.71-1.03,2.89,1.99-.71,1.03Zm4.44,3.05l-1.55-1.06,.71-1.03,1.55,1.06-.71,1.03Z"/><path class="cls-53" d="M356.86,119.22c-1,2.45-3.81,3.63-6.26,2.62s-3.63-3.81-2.62-6.26l-2.93-1.2c-1,2.45-3.81,3.63-6.26,2.62s-3.63-3.81-2.62-6.26l-2.93-1.2c-1,2.45-3.81,3.63-6.26,2.62s-3.63-3.81-2.62-6.26l-2.93-1.2c-1,2.45-3.81,3.63-6.26,2.62s-3.63-3.81-2.62-6.26l-2.93-1.2c-1,2.45-3.81,3.63-6.26,2.62s-3.63-3.81-2.62-6.26l-3.1-1.27-30.83,75.32,62.3,25.51,30.83-75.32-3.1-1.27Zm-62.04,2.1l-1.74-.71,.47-1.16,1.74,.71-.47,1.16Zm6.49,2.66l-3.25-1.33,.47-1.16,3.25,1.33-.47,1.16Zm6.49,2.66l-3.25-1.33,.47-1.16,3.25,1.33-.47,1.16Zm6.49,2.66l-3.25-1.33,.47-1.16,3.25,1.33-.47,1.16Zm6.49,2.66l-3.25-1.33,.47-1.16,3.25,1.33-.47,1.16Zm6.49,2.66l-3.25-1.33,.47-1.16,3.25,1.33-.47,1.16Zm6.49,2.66l-3.25-1.33,.47-1.16,3.25,1.33-.47,1.16Zm6.49,2.66l-3.25-1.33,.47-1.16,3.25,1.33-.47,1.16Zm4.99,2.04l-1.74-.71,.47-1.16,1.74,.71-.47,1.16Z"/><g class="cls-56"><g class="cls-56"><g class="cls-30"><g class="cls-56"><path class="cls-15" d="M137.8,118.39l-4.18,1.31c-1.64-1.18-3.37-2.02-5.2-2.48-1.23-.31-2.52-.44-3.85-.39-.64,.03-1.28,.09-1.94,.21l4.18-1.31c.66-.11,1.3-.18,1.94-.21,1.33-.05,2.61,.07,3.85,.39,1.83,.46,3.56,1.29,5.2,2.48"/></g></g></g><polygon class="cls-14" points="133.42 125.03 129.24 126.34 133.62 119.7 137.8 118.39 133.42 125.03"/><polygon class="cls-24" points="126.81 115.73 122.63 117.04 121.73 112.42 125.92 111.11 126.81 115.73"/><g class="cls-56"><g class="cls-33"><g class="cls-56"><path class="cls-15" d="M137.8,118.39l-4.18,1.31c-1.64-1.18-3.37-2.02-5.2-2.48-1.23-.31-2.52-.44-3.85-.39-.64,.03-1.28,.09-1.94,.21l4.18-1.31c.66-.11,1.3-.18,1.94-.21,1.33-.05,2.61,.07,3.85,.39,1.83,.46,3.56,1.29,5.2,2.48"/></g></g></g><g class="cls-56"><g class="cls-32"><g class="cls-56"><path class="cls-15" d="M141.08,147.98l-4.18,1.31c1.58-2.3,2.07-5.02,1.46-8.13-.35-1.79-.86-3.33-1.54-4.59-.68-1.26-1.75-2.42-3.23-3.48-1.48-1.06-3.82-1.54-7.04-1.47l4.18-1.31c3.22-.07,5.57,.41,7.04,1.47,1.48,1.06,2.55,2.22,3.23,3.48,.68,1.26,1.19,2.8,1.54,4.59,.61,3.12,.12,5.83-1.46,8.13"/></g></g></g><g class="cls-56"><g class="cls-31"><g class="cls-56"><path class="cls-23" d="M133.42,125.03l-4.18,1.31c-.84-.61-1.84-1-2.98-1.17-.75-.1-1.45-.14-2.09-.12-.34,.01-.67,.05-.98,.1l4.18-1.31c.31-.05,.64-.09,.98-.1,.64-.03,1.34,.01,2.09,.12,1.14,.17,2.14,.56,2.98,1.17"/></g></g></g><polygon class="cls-25" points="130.73 130.3 126.55 131.61 124.45 131.64 128.63 130.33 130.73 130.3"/><polygon class="cls-24" points="128.63 130.33 124.45 131.64 123.18 125.15 127.37 123.84 128.63 130.33"/><g class="cls-56"><g class="cls-37"><g class="cls-56"><path class="cls-23" d="M132.87,139.43l-4.18,1.31c-.28-.24-.68-.39-1.18-.47-.5-.08-.97-.11-1.41-.11l4.18-1.31c.44,0,.91,.03,1.41,.11,.5,.08,.89,.23,1.18,.47"/></g></g></g><g class="cls-56"><g class="cls-36"><g class="cls-56"><path class="cls-15" d="M134.07,153.01l-4.18,1.31c3.1-1.06,5.43-2.73,7.01-5.03l4.18-1.31c-1.58,2.3-3.91,3.97-7.01,5.03"/></g></g></g><g class="cls-56"><g class="cls-34"><g class="cls-56"><path class="cls-23" d="M131.52,145.18l-4.18,1.31c1.98-.75,2.81-1.99,2.48-3.68-.19-.97-.57-1.66-1.13-2.07l4.18-1.31c.56,.41,.94,1.1,1.13,2.07,.33,1.7-.49,2.93-2.48,3.68"/></g></g></g><polygon class="cls-24" points="131.52 145.18 127.34 146.49 126.11 140.16 130.29 138.85 131.52 145.18"/><path class="cls-7" d="M132.87,139.43c.56,.41,.94,1.1,1.13,2.07,.33,1.7-.49,2.93-2.48,3.68l-1.23-6.33c.44,0,.91,.03,1.41,.11,.5,.08,.89,.23,1.18,.47Z"/><polygon class="cls-25" points="125.92 111.11 121.73 112.42 115.44 113.47 119.63 112.16 125.92 111.11"/><polygon class="cls-26" points="120.52 116.79 116.34 118.1 115.44 113.47 119.63 112.16 120.52 116.79"/><g class="cls-56"><g class="cls-35"><g class="cls-56"><path class="cls-15" d="M137.99,170.16l-4.18,1.31c16.28-5.1,26.31-22.21,22.8-40.24-3.54-18.16-19.6-30.99-36.91-30.27-1.38,.06-2.77,.2-4.16,.43-1.52,.25-2.99,.61-4.42,1.06l4.18-1.31c1.43-.45,2.9-.8,4.42-1.06,1.39-.23,2.78-.38,4.16-.43,17.31-.72,33.38,12.11,36.91,30.27,3.51,18.02-6.53,35.14-22.8,40.24"/></g></g></g><g class="cls-56"><g class="cls-38"><g class="cls-56"><path class="cls-23" d="M137.39,168.25l-4.18,1.31c15.42-4.83,24.94-21,21.63-38.03-3.35-17.16-18.56-29.27-34.97-28.59-1.32,.05-2.63,.2-3.96,.41-1.44,.24-2.85,.58-4.2,1l4.18-1.31c1.36-.42,2.76-.76,4.2-1,1.33-.22,2.64-.36,3.96-.41,16.4-.68,31.62,11.43,34.97,28.59,3.32,17.03-6.21,33.2-21.63,38.03"/></g></g></g><polygon class="cls-26" points="124.27 130.74 120.09 132.05 118.89 125.92 123.08 124.61 124.27 130.74"/><g class="cls-56"><g class="cls-44"><g class="cls-56"><path class="cls-15" d="M124.27,130.74l-4.18,1.31s-.07,0-.1,0c-.57,.02-1.04-.03-1.42-.15-.4-.13-.75-.3-1.06-.52-.3-.22-.53-.44-.7-.69-.17-.24-.29-.55-.36-.93-.14-.73,0-1.45,.4-2.18l4.18-1.31c-.41,.73-.54,1.45-.4,2.18,.08,.38,.19,.69,.36,.93,.17,.24,.4,.47,.7,.69,.31,.22,.66,.39,1.06,.52,.38,.12,.85,.17,1.42,.15,.03,0,.07,0,.1,0"/></g></g></g><polygon class="cls-26" points="127.26 146.06 123.08 147.37 121.74 140.52 125.92 139.21 127.26 146.06"/><g class="cls-56"><g class="cls-49"><g class="cls-56"><path class="cls-15" d="M121.03,126.27l-4.18,1.31c.41-.73,1.09-1.28,2.05-1.66l4.18-1.31c-.95,.38-1.64,.93-2.05,1.66"/></g></g></g><g class="cls-56"><g class="cls-43"><g class="cls-56"><path class="cls-15" d="M124.27,130.74l-4.18,1.31s-.07,0-.1,0c-.57,.02-1.04-.03-1.42-.15-.4-.13-.75-.3-1.06-.52-.3-.22-.53-.44-.7-.69-.17-.24-.29-.55-.36-.93-.14-.73,0-1.45,.4-2.18l4.18-1.31c-.41,.73-.54,1.45-.4,2.18,.08,.38,.19,.69,.36,.93,.17,.24,.4,.47,.7,.69,.31,.22,.66,.39,1.06,.52,.38,.12,.85,.17,1.42,.15,.03,0,.07,0,.1,0"/></g></g></g><g class="cls-56"><g class="cls-42"><g class="cls-56"><path class="cls-15" d="M124.27,130.74l-4.18,1.31s-.07,0-.1,0c-.57,.02-1.04-.03-1.42-.15-.4-.13-.75-.3-1.06-.52-.3-.22-.53-.44-.7-.69-.17-.24-.29-.55-.36-.93-.14-.73,0-1.45,.4-2.18l4.18-1.31c-.41,.73-.54,1.45-.4,2.18,.08,.38,.19,.69,.36,.93,.17,.24,.4,.47,.7,.69,.31,.22,.66,.39,1.06,.52,.38,.12,.85,.17,1.42,.15,.03,0,.07,0,.1,0"/></g></g></g><polygon class="cls-27" points="125.92 139.21 121.74 140.52 119.74 140.58 123.93 139.27 125.92 139.21"/><g class="cls-56"><g class="cls-41"><g class="cls-56"><path class="cls-15" d="M127.26,146.06l-4.18,1.31c-.61,.1-1.21,.16-1.82,.19-.86,.04-1.73,0-2.6-.12-1.49-.2-2.73-.66-3.73-1.39l4.18-1.31c1,.73,2.24,1.19,3.73,1.39,.87,.12,1.74,.16,2.6,.12,.61-.03,1.22-.09,1.82-.19"/></g></g></g><g class="cls-56"><g class="cls-45"><g class="cls-56"><path class="cls-15" d="M127.26,146.06l-4.18,1.31c-.61,.1-1.21,.16-1.82,.19-.86,.04-1.73,0-2.6-.12-1.49-.2-2.73-.66-3.73-1.39l4.18-1.31c1,.73,2.24,1.19,3.73,1.39,.87,.12,1.74,.16,2.6,.12,.61-.03,1.22-.09,1.82-.19"/></g></g></g><g class="cls-56"><g class="cls-47"><g class="cls-56"><path class="cls-23" d="M123.93,139.27l-4.18,1.31c-1.61,.05-3.06-.1-4.37-.45s-2.69-1.08-4.17-2.18c-1.47-1.1-2.52-3.27-3.15-6.5-.6-3.1-.18-5.85,1.28-8.24,1.45-2.39,3.78-4.09,6.97-5.1l4.18-1.31c-3.19,1-5.52,2.71-6.97,5.1-1.46,2.4-1.88,5.14-1.28,8.24,.63,3.23,1.68,5.4,3.15,6.5,1.47,1.1,2.86,1.82,4.17,2.18s2.76,.5,4.37,.45"/><path class="cls-13" d="M120.5,116.8l-4.18,1.31s.02,0,.03,0l4.18-1.31s-.02,0-.03,0"/></g></g></g><polygon class="cls-28" points="114.65 151.5 110.47 152.81 114.93 146.05 119.11 144.74 114.65 151.5"/><g class="cls-56"><g class="cls-46"><g class="cls-56"><path class="cls-15" d="M137.39,168.25l-4.18,1.31c-1.36,.43-2.76,.76-4.2,1-1.33,.22-2.66,.36-3.99,.42-7.33,.3-14.61-1.92-20.84-6.43-7.34-5.33-12.34-13.19-14.09-22.16-3.32-17.03,6.2-33.2,21.62-38.03l4.18-1.31c-15.42,4.83-24.94,21-21.62,38.03,1.75,8.97,6.75,16.83,14.09,22.16,6.23,4.51,13.5,6.74,20.84,6.43,1.33-.06,2.66-.19,3.99-.42,1.44-.24,2.85-.58,4.2-1"/></g></g></g><g class="cls-56"><g class="cls-50"><g class="cls-56"><path class="cls-15" d="M137.39,168.25l-4.18,1.31c-1.36,.43-2.76,.76-4.2,1-1.33,.22-2.66,.36-3.99,.42-7.33,.3-14.61-1.92-20.84-6.43-7.34-5.33-12.34-13.19-14.09-22.16-3.32-17.03,6.2-33.2,21.62-38.03l4.18-1.31c-15.42,4.83-24.94,21-21.62,38.03,1.75,8.97,6.75,16.83,14.09,22.16,6.23,4.51,13.5,6.74,20.84,6.43,1.33-.06,2.66-.19,3.99-.42,1.44-.24,2.85-.58,4.2-1"/></g></g></g><g class="cls-56"><g class="cls-48"><g class="cls-56"><path class="cls-15" d="M137.39,168.25l-4.18,1.31c-1.36,.43-2.76,.76-4.2,1-1.33,.22-2.66,.36-3.99,.42-7.33,.3-14.61-1.92-20.84-6.43-7.34-5.33-12.34-13.19-14.09-22.16-3.32-17.03,6.2-33.2,21.62-38.03l4.18-1.31c-15.42,4.83-24.94,21-21.62,38.03,1.75,8.97,6.75,16.83,14.09,22.16,6.23,4.51,13.5,6.74,20.84,6.43,1.33-.06,2.66-.19,3.99-.42,1.44-.24,2.85-.58,4.2-1"/></g></g></g><path class="cls-22" d="M160.79,129.93c3.82,19.6-8.39,38.13-27.22,41.29-1.4,.23-2.8,.38-4.2,.43-7.72,.32-15.39-2.02-21.95-6.79-7.77-5.63-13.07-13.97-14.92-23.48-3.82-19.6,8.39-38.13,27.22-41.29,1.39-.23,2.78-.38,4.16-.43,17.31-.72,33.38,12.11,36.91,30.27Zm-27.6,39.33c17.85-2.99,29.44-20.5,25.83-39.03-3.35-17.16-18.56-29.27-34.97-28.59-1.32,.05-2.63,.2-3.96,.41-17.85,2.99-29.43,20.5-25.82,39.03,1.75,8.97,6.75,16.83,14.09,22.16,6.23,4.51,13.5,6.74,20.84,6.43,1.33-.06,2.66-.19,3.99-.42"/><path class="cls-7" d="M121.03,126.27c.41-.73,1.09-1.28,2.05-1.66l1.2,6.13s-.07,0-.1,0c-.57,.02-1.04-.03-1.42-.15-.4-.13-.75-.3-1.06-.52-.3-.22-.53-.44-.7-.69-.17-.24-.29-.55-.36-.93-.14-.73,0-1.45,.4-2.18Z"/><path class="cls-11" d="M142.55,139.84c.61,3.12,.12,5.83-1.46,8.13-1.58,2.3-3.91,3.97-7.01,5.03l1.14,5.87-6.29,1.06-1.09-5.61c-.99,.17-1.95,.27-2.88,.31-1.47,.06-2.85-.04-4.15-.3-2.13-.43-4.17-1.38-6.14-2.83l4.46-6.75c1,.73,2.24,1.19,3.73,1.39,.87,.12,1.74,.16,2.6,.12,.61-.03,1.22-.09,1.82-.19l-1.34-6.85-1.99,.06c-1.61,.05-3.06-.1-4.37-.45s-2.69-1.08-4.17-2.18c-1.47-1.1-2.52-3.27-3.15-6.5-.6-3.1-.18-5.85,1.28-8.24,1.46-2.4,3.79-4.1,7-5.1l-.9-4.63,6.29-1.06,.9,4.63c.66-.11,1.3-.18,1.94-.21,1.33-.05,2.61,.07,3.85,.39,1.83,.46,3.56,1.29,5.2,2.48l-4.38,6.63c-.84-.61-1.84-1-2.98-1.17-.75-.1-1.45-.14-2.09-.12-.34,.01-.67,.05-.98,.1l1.26,6.49,2.1-.03c3.22-.07,5.57,.41,7.04,1.47,1.48,1.06,2.55,2.22,3.23,3.48,.68,1.26,1.19,2.8,1.54,4.59Zm-11.02,5.33c1.98-.75,2.81-1.99,2.48-3.68-.19-.97-.57-1.66-1.13-2.07-.28-.24-.68-.39-1.18-.47-.5-.08-.97-.11-1.41-.11l1.23,6.33m-7.35-14.43s.07,0,.1,0l-1.2-6.13c-.95,.38-1.64,.93-2.05,1.66-.41,.73-.54,1.45-.4,2.18,.08,.38,.19,.69,.36,.93,.17,.24,.4,.47,.7,.69,.31,.22,.66,.39,1.06,.52,.38,.12,.85,.17,1.42,.15"/><path class="cls-7" d="M124.06,101.64c16.4-.68,31.62,11.43,34.97,28.59,3.61,18.53-7.98,36.04-25.83,39.03-1.33,.22-2.66,.36-3.99,.42-7.33,.3-14.61-1.92-20.84-6.43-7.34-5.33-12.34-13.19-14.09-22.16-3.61-18.53,7.97-36.04,25.82-39.03,1.33-.22,2.64-.36,3.96-.41Zm17.03,46.34c1.58-2.3,2.07-5.02,1.46-8.13-.35-1.79-.86-3.33-1.54-4.59-.68-1.26-1.75-2.42-3.23-3.48-1.48-1.06-3.82-1.54-7.04-1.47l-2.1,.03-1.26-6.49c.31-.05,.64-.09,.98-.1,.64-.03,1.34,.01,2.09,.12,1.14,.17,2.14,.56,2.98,1.17l4.38-6.63c-1.64-1.18-3.37-2.02-5.2-2.48-1.23-.31-2.52-.44-3.85-.39-.64,.03-1.28,.09-1.94,.21l-.9-4.63-6.29,1.06,.9,4.63c-3.21,1-5.54,2.71-7,5.1-1.46,2.4-1.88,5.14-1.28,8.24,.63,3.23,1.68,5.4,3.15,6.5,1.47,1.1,2.86,1.82,4.17,2.18,1.31,.36,2.76,.5,4.37,.45l1.99-.06,1.34,6.85c-.61,.1-1.21,.16-1.82,.19-.86,.04-1.73,0-2.6-.12-1.49-.2-2.73-.66-3.73-1.39l-4.46,6.75c1.97,1.46,4.01,2.4,6.14,2.83,1.3,.26,2.69,.36,4.15,.3,.93-.04,1.89-.14,2.88-.31l1.09,5.61,6.29-1.06-1.14-5.87c3.1-1.06,5.43-2.73,7.01-5.03"/><g class="cls-56"><g class="cls-39"><g class="cls-56"><path class="cls-23" d="M137.99,170.16l-4.18,1.31c-1.43,.45-2.9,.8-4.42,1.06-1.4,.23-2.8,.38-4.2,.43-7.72,.32-15.39-2.02-21.95-6.79-7.77-5.63-13.07-13.97-14.92-23.48-3.51-18.02,6.53-35.14,22.8-40.24l4.18-1.31c-16.28,5.1-26.31,22.21-22.8,40.24,1.86,9.52,7.16,17.85,14.92,23.48,6.56,4.77,14.23,7.11,21.95,6.79,1.4-.06,2.8-.21,4.2-.43,1.52-.25,2.99-.61,4.42-1.06"/></g></g></g><g><path class="cls-18" d="M140.57,177.84l-4.18,1.31c-1.76,.55-3.58,.99-5.45,1.3-1.71,.29-3.42,.46-5.12,.53-21.22,.88-40.85-14.76-45.18-37.01-4.3-22.08,7.97-42.97,27.91-49.21l4.18-1.31c-19.94,6.25-32.21,27.13-27.91,49.21,4.33,22.24,23.96,37.88,45.18,37.01,1.7-.07,3.41-.25,5.12-.53,1.87-.31,3.69-.75,5.45-1.3Z"/><g class="cls-40"><g class="cls-56"><path class="cls-18" d="M140.57,177.84l-4.18,1.31c-1.76,.55-3.58,.99-5.45,1.3-1.71,.29-3.42,.46-5.12,.53-21.22,.88-40.85-14.76-45.18-37.01-4.3-22.08,7.97-42.97,27.91-49.21l4.18-1.31c-19.94,6.25-32.21,27.13-27.91,49.21,4.33,22.24,23.96,37.88,45.18,37.01,1.7-.07,3.41-.25,5.12-.53,1.87-.31,3.69-.75,5.45-1.3"/></g></g></g><path class="cls-3" d="M168.48,128.63c4.68,24.02-10.26,46.64-33.36,50.51-1.71,.29-3.42,.46-5.12,.53-21.22,.88-40.85-14.76-45.18-37.01-4.68-24.02,10.26-46.64,33.36-50.51,1.71-.29,3.42-.46,5.12-.53,21.22-.88,40.85,14.77,45.18,37.01Zm-34.91,42.58c18.83-3.16,31.04-21.69,27.22-41.29-3.54-18.16-19.6-30.99-36.91-30.27-1.38,.06-2.77,.2-4.16,.43-18.83,3.16-31.04,21.69-27.22,41.29,1.86,9.52,7.16,17.85,14.92,23.48,6.56,4.77,14.23,7.11,21.95,6.79,1.4-.06,2.8-.21,4.2-.43"/></g><g><polygon class="cls-8" points="296.39 106.94 137.7 106.94 141.85 98.47 151.26 79.27 285.09 79.27 292.93 98.47 296.39 106.94"/><rect class="cls-19" x="137.71" y="106.94" width="158.68" height="15.81"/><polygon class="cls-6" points="296.39 106.94 137.7 106.94 141.85 98.47 292.93 98.47 296.39 106.94"/><rect class="cls-29" x="148.44" y="122.75" width="137.22" height="42.92"/><rect class="cls-9" x="209.99" y="78.99" width="14.12" height="27.96"/><g><g><path class="cls-5" d="M155.2,78.09l1.28,1.8c-.49-.59-.92-1.2-1.28-1.8Z"/><path class="cls-5" d="M214.99,77.48v8.58c-10.11-1.14-23.92-.81-34.34-4.57-2.59-.94-5.38-2.5-8.13-4.16-3.2-1.85-9.44-5.51-16.83-6.55-.55-.08-1.1-.14-1.66-.19,.17-.6,.42-1.16,.77-1.69,4.01-6,16.04-9.37,27.64-8.58,12.48,.86,13.53,10.87,32.56,17.16Z"/><path class="cls-10" d="M214.99,86.05c-8.26,3.61-17.47,4.84-25.76,4.84-.92,0-1.84-.02-2.74-.05-.45-.02-.89-.03-1.33-.05-.26-.02-.52-.02-.78-.04-.35-.02-.69-.05-1.03-.07-.43-.03-.85-.06-1.28-.1-3.28-.27-6.27-.71-8.83-1.22-.36-.07-.72-.14-1.06-.22-.35-.08-.68-.14-1.01-.23-.19-.05-.38-.09-.57-.14-.44-.11-.86-.21-1.26-.33-4.6-1.27-9.75-4.76-12.8-8.49l-.06-.07-1.28-1.8s0,0,0-.02c-.66-1.07-1.1-2.13-1.27-3.14-.26-1.51-.29-3,.09-4.34h0c.56,.05,1.11,.11,1.66,.19,7.4,1.04,13.64,4.69,16.83,6.55,2.76,1.66,5.54,3.22,8.13,4.16,10.42,3.77,24.23,3.43,34.34,4.57Z"/><path class="cls-10" d="M156.48,79.89c-.49-.59-.92-1.2-1.28-1.8l1.28,1.8Z"/></g><g><path class="cls-5" d="M283.52,79.32l-1.36,1.52c.52-.5,.98-1.01,1.36-1.52Z"/><path class="cls-5" d="M219.86,78.8v7.25c10.76-.96,25.47-.68,36.56-3.87,2.76-.8,5.73-2.11,8.66-3.52,3.41-1.57,10.05-4.66,17.93-5.54,.59-.07,1.17-.12,1.77-.16-.18-.51-.45-.98-.82-1.43-4.27-5.07-17.08-7.93-29.44-7.25-13.29,.73-14.4,9.19-34.66,14.51Z"/><path class="cls-10" d="M219.86,86.06c8.79,3.05,18.61,4.09,27.43,4.09,.98,0,1.96-.01,2.92-.04,.48-.01,.95-.03,1.42-.04,.28-.01,.55-.02,.83-.03,.37-.02,.74-.04,1.1-.06,.45-.03,.91-.05,1.36-.08,3.49-.23,6.68-.6,9.4-1.03,.39-.06,.77-.12,1.13-.19,.37-.06,.72-.12,1.08-.19,.2-.04,.4-.08,.61-.12,.47-.09,.92-.18,1.35-.28,4.9-1.07,10.38-4.03,13.63-7.18l.06-.06,1.36-1.52s0,0,0-.02c.71-.91,1.17-1.81,1.35-2.66,.28-1.28,.31-2.54-.1-3.67h0c-.6,.04-1.18,.09-1.77,.16-7.88,.88-14.52,3.97-17.93,5.54-2.93,1.41-5.9,2.72-8.66,3.52-11.1,3.19-25.8,2.9-36.56,3.87Z"/><path class="cls-10" d="M282.16,80.85c.52-.5,.98-1.01,1.36-1.52l-1.36,1.52Z"/></g><ellipse class="cls-20" cx="217.43" cy="81" rx="9.62" ry="7.41"/></g><rect class="cls-54" x="209.99" y="106.94" width="14.12" height="58.73"/></g><path class="cls-5" d="M252.93,12.94c-8.96,0-12.94,3.97-12.94,12.94,0-8.96-3.97-12.94-12.94-12.94,8.96,0,12.94-3.97,12.94-12.94,0,8.96,3.97,12.94,12.94,12.94Z"/><path class="cls-3" d="M331.58,46.55c-11.64,0-16.8,5.16-16.8,16.8,0-11.64-5.16-16.8-16.8-16.8,11.64,0,16.8-5.16,16.8-16.8,0,11.64,5.16,16.8,16.8,16.8Z"/><path class="cls-21" d="M145.33,44.1c-10.7,4.59-13.41,11.37-8.81,22.07-4.59-10.7-11.37-13.41-22.07-8.81,10.7-4.59,13.41-11.37,8.81-22.07,4.59,10.7,11.37,13.41,22.07,8.81Z"/></g></g></g></svg>